# xmcd
#
# Track frame offsets: 
#        150
#        17824
#        34647
#        55024
#        71919
#        92817
#        114215
#        131289
#        147577
#        167747
#
# Disc length: 2413 seconds
#
# Revision: 0
# Processed by: cddbd v1.5.1PL0 Copyright (c) Steve Scherf et al.
# Submitted via: ExactAudioCopy v0.95a5
#
DISCID=84096b0a
DTITLE=Pete Anderson - Daredevil
DYEAR=2004
DGENRE=Blues
TTITLE0=Baby Done Something Wrong
TTITLE1=The New World Cakewalk
TTITLE2=Daredevi's Dance
TTITLE3=Ballad of Los Barilles
TTITLE4=My Little Angel
TTITLE5=Sweet Delta Sunrise
TTITLE6=Glad I Don't Live Here
TTITLE7=A Day In The Barnyard
TTITLE8=Big Canyon/ Little Bird
TTITLE9=That Broken Heart Will Heal
EXTD=
EXTT0=
EXTT1=
EXTT2=
EXTT3=
EXTT4=
EXTT5=
EXTT6=
EXTT7=
EXTT8=
EXTT9=
PLAYORDER=
